<?xml version="1.0" encoding="UTF-8" standalone="no"?>
<!-- Created with Inkscape (http://www.inkscape.org/) -->

<svg
   xmlns:dc="http://purl.org/dc/elements/1.1/"
   xmlns:cc="http://creativecommons.org/ns#"
   xmlns:rdf="http://www.w3.org/1999/02/22-rdf-syntax-ns#"
   xmlns:svg="http://www.w3.org/2000/svg"
   xmlns="http://www.w3.org/2000/svg"
   xmlns:xlink="http://www.w3.org/1999/xlink"
   xmlns:sodipodi="http://sodipodi.sourceforge.net/DTD/sodipodi-0.dtd"
   xmlns:inkscape="http://www.inkscape.org/namespaces/inkscape"
   version="1.0"
   width="48"
   height="48"
   id="svg1872"
   sodipodi:version="0.32"
   inkscape:version="0.48.2 r9819"
   sodipodi:docname="gear.svg"
   inkscape:output_extension="org.inkscape.output.svg.inkscape"
   inkscape:export-filename="/Users/teddy/Code/morphine/icons/gear.png"
   inkscape:export-xdpi="90"
   inkscape:export-ydpi="90">
  <metadata
     id="metadata10">
    <rdf:RDF>
      <cc:Work
         rdf:about="">
        <dc:format>image/svg+xml</dc:format>
        <dc:type
           rdf:resource="http://purl.org/dc/dcmitype/StillImage" />
        <dc:title></dc:title>
      </cc:Work>
    </rdf:RDF>
  </metadata>
  <sodipodi:namedview
     inkscape:window-height="852"
     inkscape:window-width="1440"
     inkscape:pageshadow="2"
     inkscape:pageopacity="0.0"
     guidetolerance="10.0"
     gridtolerance="10.0"
     objecttolerance="10.0"
     borderopacity="1.0"
     bordercolor="#666666"
     pagecolor="#ffffff"
     id="base"
     inkscape:zoom="9.9289577"
     inkscape:cx="24"
     inkscape:cy="24"
     inkscape:window-x="0"
     inkscape:window-y="0"
     inkscape:current-layer="svg1872"
     showgrid="true"
     width="48px"
     height="48px"
     inkscape:window-maximized="0" />
  <defs
     id="defs1874">
    <linearGradient
       id="linearGradient9233">
      <stop
         id="stop9235"
         offset="0"
         style="stop-color:#eeeeec;stop-opacity:1;" />
      <stop
         id="stop9237"
         offset="1"
         style="stop-color:#eeeeec;stop-opacity:0;" />
    </linearGradient>
    <linearGradient
       inkscape:collect="always"
       xlink:href="#linearGradient9233"
       id="linearGradient17244"
       gradientUnits="userSpaceOnUse"
       gradientTransform="translate(22.43465,4.820297)"
       x1="-10.638614"
       y1="7.1375623"
       x2="-15.286263"
       y2="-6.2254333" />
    <linearGradient
       inkscape:collect="always"
       xlink:href="#linearGradient9233"
       id="linearGradient3770"
       gradientUnits="userSpaceOnUse"
       gradientTransform="translate(22.43465,4.820297)"
       x1="-10.638614"
       y1="7.1375623"
       x2="-15.286263"
       y2="-6.2254333" />
  </defs>
  <path
     inkscape:connector-curvature="0"
     d="M 48,24.247225 C 48,37.365521 37.254834,48 24,48 10.745166,48 4.8563679e-8,37.365521 4.8563679e-8,24.247225 4.8563679e-8,11.128929 10.745166,0.49444962 24,0.49444962 c 13.254834,0 24,10.63447938 24,23.75277538 l 0,0 z"
     style="fill:#323232;fill-opacity:1;fill-rule:evenodd;stroke:none"
     id="path1880" />
  <path
     sodipodi:type="star"
     style="fill:#ffffff;fill-opacity:1;stroke-width:1.06500006;stroke-linecap:round;stroke-linejoin:round;stroke-miterlimit:4;stroke-opacity:1;stroke-dasharray:none"
     id="path2806"
     sodipodi:sides="8"
     sodipodi:cx="6.6830468"
     sodipodi:cy="6.6437345"
     sodipodi:r1="4.6130967"
     sodipodi:r2="3.3214295"
     sodipodi:arg1="1.0040671"
     sodipodi:arg2="1.3967662"
     inkscape:flatsided="false"
     inkscape:rounded="0.37"
     inkscape:randomized="0"
     d="M 9.1597054,10.535626 C 8.5353139,10.932967 7.9870803,9.7868435 7.2581623,9.9149935 6.5292443,10.043144 6.404799,11.307529 5.6823257,11.14698 4.9598523,10.98643 5.3826241,9.7883391 4.7765854,9.363532 4.1705467,8.9387249 3.1884949,9.7447846 2.7911548,9.1203931 2.3938147,8.4960015 3.5399378,7.947768 3.4117877,7.2188499 3.2836377,6.4899319 2.0192519,6.3654866 2.1798015,5.6430133 2.3403511,4.9205399 3.5384422,5.3433117 3.9632493,4.737273 4.3880564,4.1312344 3.5819967,3.1491825 4.2063882,2.7518424 4.8307798,2.3545024 5.3790133,3.5006254 6.1079314,3.3724754 6.8368494,3.2443253 6.9612946,1.9799395 7.683768,2.1404891 8.4062413,2.3010388 7.9834696,3.4991298 8.5895083,3.9239369 9.1955469,4.348744 10.177599,3.5426843 10.574939,4.1670759 10.972279,4.7914674 9.8261558,5.3397009 9.9543059,6.068619 10.082456,6.797537 11.346842,6.9219823 11.186292,7.6444556 11.025743,8.366929 9.8276515,7.9441572 9.4028444,8.5501959 8.9780373,9.1562345 9.7840969,10.138286 9.1597054,10.535626 z"
     transform="matrix(3.9056683,-0.85829937,0.85963684,3.763405,-7.4326201,4.7134061)" />
  <path
     sodipodi:type="arc"
     style="fill:#323232;fill-opacity:1;stroke-width:1.06500006000000003;stroke-linecap:round;stroke-linejoin:round;stroke-miterlimit:4;stroke-opacity:1;stroke-dasharray:none"
     id="path2808"
     sodipodi:cx="7.9803438"
     sodipodi:cy="8.1769037"
     sodipodi:rx="0.90417689"
     sodipodi:ry="1.022113"
     d="m 8.8845207,8.1769037 a 0.90417689,1.022113 0 1 1 -1.8083538,0 0.90417689,1.022113 0 1 1 1.8083538,0 z"
     transform="matrix(4.5796274,0,0,4.0347837,-12.16668,-8.7460607)" />
</svg>
